<svg xmlns="http://www.w3.org/2000/svg" fill="currentColor" height="24" viewBox="0 0 24 24" width="24" focusable="false" aria-hidden="true" style="pointer-events: none; display: inherit; width: 100%; height: 100%;"><path clip-rule="evenodd" d="M21.9 19.071c-1.563 1.562-4.095 1.562-5.657 0l-4.4-4.4-.994.995c.468 1.394.147 2.995-.964 4.105-1.562 1.562-4.094 1.562-5.656 0-1.563-1.562-1.563-4.095 0-5.657.98-.98 2.342-1.345 3.608-1.095l1.177-1.177-.928-.927c-1.334.356-2.817.01-3.864-1.036-1.562-1.562-1.562-4.095 0-5.657 1.562-1.562 4.094-1.562 5.657 0 1.046 1.047 1.392 2.53 1.035 3.865l.928.927.002-.002 2.83 2.83-.002.002 7.227 7.227ZM8.5 7c0-.828-.672-1.5-1.5-1.5-.829 0-1.5.672-1.5 1.5 0 .829.671 1.5 1.5 1.5.828 0 1.5-.671 1.5-1.5Zm7.584-2.228c1.563-1.562 4.097-1.56 5.659.001l-6.007 6.007-2.83-2.83 3.178-3.178ZM8.507 16.993c0 .828-.672 1.5-1.5 1.5-.829 0-1.5-.672-1.5-1.5 0-.829.671-1.5 1.5-1.5.828 0 1.5.671 1.5 1.5Z" fill-rule="evenodd"></path></svg>