<svg xmlns="http://www.w3.org/2000/svg" fill="currentColor" height="24" viewBox="0 0 24 24" width="24" focusable="false" aria-hidden="true" style="pointer-events: none; display: inherit; width: 100%; height: 100%;"><path clip-rule="evenodd" d="M8 21V9.282a4 4 0 01.745-2.325L13 1l.551.33a3 3 0 011.351 3.363L14 8h5.192a2.722 2.722 0 012.334 4.123L21 13l.165.413a4 4 0 01-.514 3.885l-.151.202v.5a3 3 0 01-3 3H8ZM4.5 9A1.5 1.5 0 003 10.5v9A1.5 1.5 0 004.5 21H7V9H4.5Z" fill-rule="evenodd"></path></svg>